<svg version="1.1" id="Layer_1" xmlns="http://www.w3.org/2000/svg" xmlns:xlink="http://www.w3.org/1999/xlink" x="0px" y="0px"
	 width="100%" viewBox="0 0 128 128" enable-background="new 0 0 128 128" xml:space="preserve">
<path fill="#2C303C" opacity="1.000000" stroke="none" 
	d="
M0.999999,81.000000 
	C1.000000,70.645775 1.000000,60.291546 1.354924,49.400429 
	C2.139395,48.202198 2.740972,47.596062 2.973497,46.871494 
	C9.987714,25.014742 24.390171,10.482484 46.114956,3.120293 
	C47.192410,2.755160 48.043503,1.722066 49.000000,0.999999 
	C59.354229,1.000000 69.708458,1.000000 80.599678,1.354958 
	C81.799179,2.137106 82.407150,2.734569 83.132111,2.966745 
	C105.001106,9.970509 119.474823,24.431946 126.875198,46.114819 
	C127.243080,47.192719 128.276474,48.043476 129.000000,49.000000 
	C129.000000,59.354229 129.000000,69.708458 128.645050,80.599426 
	C127.825325,81.959549 127.210052,82.732979 126.917839,83.613609 
	C119.758385,105.189964 105.399986,119.567177 83.885246,126.875877 
	C82.807365,127.242035 81.956543,128.276642 81.000000,129.000000 
	C70.645775,129.000000 60.291546,129.000000 49.400497,128.644913 
	C48.201752,127.859596 47.595196,127.255890 46.869843,127.024345 
	C24.789352,119.975922 10.274313,105.356781 2.996116,83.408363 
	C2.690366,82.486320 1.681373,81.797485 0.999999,81.000000 
M29.895325,70.505219 
	C41.770428,53.694778 59.060108,44.905991 78.045219,38.347507 
	C76.528481,37.649715 75.310852,37.587261 74.191666,37.889404 
	C55.977341,42.806702 40.448402,52.043114 28.994734,67.219215 
	C26.070068,71.094391 24.519606,76.029724 22.484509,80.544121 
	C21.369265,83.018028 20.626045,85.656876 19.597900,88.173477 
	C18.108925,91.818062 18.868429,94.890587 22.314079,96.701431 
	C25.485294,98.368050 28.657602,97.679443 30.583590,94.496178 
	C32.600296,91.162979 31.859501,88.062210 28.610149,85.809090 
	C27.569065,85.087204 26.269625,84.737907 23.995413,83.737206 
	C25.851099,79.448097 27.657850,75.272095 29.895325,70.505219 
M76.414665,98.102852 
	C80.879242,98.471733 85.356850,99.246346 89.805000,99.103577 
	C94.999168,98.936882 100.179794,98.054794 105.343002,97.319557 
	C108.845856,96.820763 110.678833,94.380371 110.606667,91.058411 
	C110.529335,87.498528 108.479279,85.129051 104.703094,84.880219 
	C101.228271,84.651253 98.918991,86.395096 98.118645,89.724754 
	C97.752365,91.248596 98.056335,92.933556 98.056335,95.533844 
	C93.100098,95.863304 88.467255,96.806435 83.973053,96.358513 
	C65.878204,94.555038 50.802734,86.179993 37.598026,74.042603 
	C36.293518,72.843529 34.838085,71.808662 33.452702,70.697578 
	C33.060242,71.292503 32.667786,71.887428 32.275326,72.482361 
	C44.075096,85.213516 58.553432,93.646820 76.414665,98.102852 
M88.210602,55.258297 
	C86.783669,44.915867 83.940071,35.126549 77.137558,26.881399 
	C74.782104,24.026426 72.372696,21.213467 70.093750,18.298588 
	C67.791473,15.353874 64.928886,14.752715 61.701244,16.282848 
	C58.664024,17.722704 57.494465,21.958603 59.244724,24.903704 
	C61.139183,28.091444 64.054085,28.895254 67.405663,27.619637 
	C68.694611,27.129059 69.738373,25.994268 70.905785,25.144318 
	C76.752960,29.124571 79.750229,34.844685 81.919312,41.005455 
	C87.372993,56.495338 87.467712,72.259132 83.910538,88.159653 
	C83.557671,89.736977 83.407761,91.359703 83.163643,92.961365 
	C83.761551,93.019333 84.359451,93.077301 84.957359,93.135269 
	C89.522430,81.211525 89.776573,68.779099 88.210602,55.258297 
M103.883736,41.647167 
	C99.038506,37.086048 93.315117,35.851097 86.970566,37.065182 
	C88.458771,38.376251 90.161308,38.836227 91.894356,39.064808 
	C102.714653,40.491924 107.283501,47.795341 103.248116,57.926315 
	C101.794937,61.574577 99.283340,64.796463 97.315910,68.247795 
	C96.779015,69.189644 96.464127,70.258057 96.047348,71.268379 
	C96.683807,71.629211 97.320267,71.990036 97.956726,72.350861 
	C100.546638,68.126587 103.582756,64.104897 105.615501,59.627655 
	C108.260376,53.802128 108.782227,47.717506 103.883736,41.647167 
M64.558723,112.104668 
	C53.276352,110.864494 51.227978,100.321251 45.788925,92.181000 
	C44.706646,101.098320 54.670189,113.595810 62.829231,114.884903 
	C70.066101,116.028290 79.116646,109.458107 80.146385,102.787796 
	C75.410561,105.770035 70.391342,108.930725 64.558723,112.104668 
M43.368160,38.844654 
	C46.260540,38.844654 49.152920,38.844654 52.045300,38.844654 
	C44.750282,33.950443 31.108866,35.818424 25.702547,41.584194 
	C19.978710,47.688591 21.211519,60.888702 28.732845,64.458153 
	C27.780207,62.028927 27.109081,60.284912 26.414021,58.550488 
	C22.126657,47.851910 26.973244,39.977467 38.478310,38.984722 
	C39.802017,38.870502 41.135998,38.875370 43.368160,38.844654 
M63.880219,63.199341 
	C62.663128,64.942490 60.992165,66.556328 60.441460,68.489334 
	C60.205055,69.319122 62.390621,71.867950 63.309582,71.785400 
	C65.271172,71.609207 68.188026,70.683723 68.808083,69.244385 
	C70.253113,65.890022 68.399055,63.574062 63.880219,63.199341 
z"/>
<path fill="#000000" opacity="1.000000" stroke="none" 
	d="
M129.000000,48.531342 
	C128.276474,48.043476 127.243080,47.192719 126.875198,46.114819 
	C119.474823,24.431946 105.001106,9.970509 83.132111,2.966745 
	C82.407150,2.734569 81.799179,2.137106 81.068336,1.354958 
	C96.926735,1.000000 112.853462,1.000000 129.000000,1.000000 
	C129.000000,16.686876 129.000000,32.374779 129.000000,48.531342 
z"/>
<path fill="#000000" opacity="1.000000" stroke="none" 
	d="
M0.999999,81.468658 
	C1.681373,81.797485 2.690366,82.486320 2.996116,83.408363 
	C10.274313,105.356781 24.789352,119.975922 46.869843,127.024345 
	C47.595196,127.255890 48.201752,127.859596 48.931839,128.644913 
	C33.073265,129.000000 17.146532,129.000000 1.000000,129.000000 
	C1.000000,113.313126 1.000000,97.625221 0.999999,81.468658 
z"/>
<path fill="#000000" opacity="1.000000" stroke="none" 
	d="
M81.468658,129.000000 
	C81.956543,128.276642 82.807365,127.242035 83.885246,126.875877 
	C105.399986,119.567177 119.758385,105.189964 126.917839,83.613609 
	C127.210052,82.732979 127.825325,81.959549 128.645050,81.068085 
	C129.000000,96.926735 129.000000,112.853462 129.000000,129.000000 
	C113.313126,129.000000 97.625221,129.000000 81.468658,129.000000 
z"/>
<path fill="#000000" opacity="1.000000" stroke="none" 
	d="
M48.531342,0.999999 
	C48.043503,1.722066 47.192410,2.755160 46.114956,3.120293 
	C24.390171,10.482484 9.987714,25.014742 2.973497,46.871494 
	C2.740972,47.596062 2.139395,48.202198 1.354924,48.931770 
	C1.000000,33.073269 1.000000,17.146536 1.000000,1.000000 
	C16.686876,1.000000 32.374779,1.000000 48.531342,0.999999 
z"/>
<path fill="#95D9E8" opacity="1.000000" stroke="none" 
	d="
M29.679962,70.800659 
	C27.657850,75.272095 25.851099,79.448097 23.995413,83.737206 
	C26.269625,84.737907 27.569065,85.087204 28.610149,85.809090 
	C31.859501,88.062210 32.600296,91.162979 30.583590,94.496178 
	C28.657602,97.679443 25.485294,98.368050 22.314079,96.701431 
	C18.868429,94.890587 18.108925,91.818062 19.597900,88.173477 
	C20.626045,85.656876 21.369265,83.018028 22.484509,80.544121 
	C24.519606,76.029724 26.070068,71.094391 28.994734,67.219215 
	C40.448402,52.043114 55.977341,42.806702 74.191666,37.889404 
	C75.310852,37.587261 76.528481,37.649715 78.045219,38.347507 
	C59.060108,44.905991 41.770428,53.694778 29.679962,70.800659 
M28.787979,92.048721 
	C27.655781,90.568993 26.688692,88.879440 25.270365,87.763306 
	C24.933661,87.498337 22.326097,88.994659 22.120943,89.967239 
	C21.855486,91.225693 22.783644,93.859886 23.496943,93.970337 
	C25.052902,94.211258 26.797945,93.231041 28.787979,92.048721 
z"/>
<path fill="#95D9E8" opacity="1.000000" stroke="none" 
	d="
M76.000168,98.042587 
	C58.553432,93.646820 44.075096,85.213516 32.275326,72.482361 
	C32.667786,71.887428 33.060242,71.292503 33.452702,70.697578 
	C34.838085,71.808662 36.293518,72.843529 37.598026,74.042603 
	C50.802734,86.179993 65.878204,94.555038 83.973053,96.358513 
	C88.467255,96.806435 93.100098,95.863304 98.056335,95.533844 
	C98.056335,92.933556 97.752365,91.248596 98.118645,89.724754 
	C98.918991,86.395096 101.228271,84.651253 104.703094,84.880219 
	C108.479279,85.129051 110.529335,87.498528 110.606667,91.058411 
	C110.678833,94.380371 108.845856,96.820763 105.343002,97.319557 
	C100.179794,98.054794 94.999168,98.936882 89.805000,99.103577 
	C85.356850,99.246346 80.879242,98.471733 76.000168,98.042587 
M105.838989,94.341499 
	C106.346870,92.686096 107.335121,90.970970 107.140144,89.402977 
	C107.055145,88.719414 104.434822,87.764275 103.169868,88.004852 
	C102.203651,88.188599 100.674995,90.743332 100.922081,91.062546 
	C102.034233,92.499382 103.690704,93.514908 105.838989,94.341499 
z"/>
<path fill="#94D8E7" opacity="1.000000" stroke="none" 
	d="
M88.274506,55.702644 
	C89.776573,68.779099 89.522430,81.211525 84.957359,93.135269 
	C84.359451,93.077301 83.761551,93.019333 83.163643,92.961365 
	C83.407761,91.359703 83.557671,89.736977 83.910538,88.159653 
	C87.467712,72.259132 87.372993,56.495338 81.919312,41.005455 
	C79.750229,34.844685 76.752960,29.124571 70.905785,25.144318 
	C69.738373,25.994268 68.694611,27.129059 67.405663,27.619637 
	C64.054085,28.895254 61.139183,28.091444 59.244724,24.903704 
	C57.494465,21.958603 58.664024,17.722704 61.701244,16.282848 
	C64.928886,14.752715 67.791473,15.353874 70.093750,18.298588 
	C72.372696,21.213467 74.782104,24.026426 77.137558,26.881399 
	C83.940071,35.126549 86.783669,44.915867 88.274506,55.702644 
M67.478661,19.434576 
	C65.635902,19.528021 63.715118,19.369072 62.006741,19.897202 
	C61.593719,20.024883 61.368805,22.777391 61.990849,23.678509 
	C62.632595,24.608179 65.320717,25.423708 65.540649,25.126242 
	C66.618706,23.668135 67.172409,21.822344 67.478661,19.434576 
z"/>
<path fill="#93D6E5" opacity="1.000000" stroke="none" 
	d="
M104.128403,41.922028 
	C108.782227,47.717506 108.260376,53.802128 105.615501,59.627655 
	C103.582756,64.104897 100.546638,68.126587 97.956726,72.350861 
	C97.320267,71.990036 96.683807,71.629211 96.047348,71.268379 
	C96.464127,70.258057 96.779015,69.189644 97.315910,68.247795 
	C99.283340,64.796463 101.794937,61.574577 103.248116,57.926315 
	C107.283501,47.795341 102.714653,40.491924 91.894356,39.064808 
	C90.161308,38.836227 88.458771,38.376251 86.970566,37.065182 
	C93.315117,35.851097 99.038506,37.086048 104.128403,41.922028 
z"/>
<path fill="#94D9E7" opacity="1.000000" stroke="none" 
	d="
M64.965424,112.098045 
	C70.391342,108.930725 75.410561,105.770035 80.146385,102.787796 
	C79.116646,109.458107 70.066101,116.028290 62.829231,114.884903 
	C54.670189,113.595810 44.706646,101.098320 45.788925,92.181000 
	C51.227978,100.321251 53.276352,110.864494 64.965424,112.098045 
z"/>
<path fill="#94D8E7" opacity="1.000000" stroke="none" 
	d="
M42.916687,38.834839 
	C41.135998,38.875370 39.802017,38.870502 38.478310,38.984722 
	C26.973244,39.977467 22.126657,47.851910 26.414021,58.550488 
	C27.109081,60.284912 27.780207,62.028927 28.732845,64.458153 
	C21.211519,60.888702 19.978710,47.688591 25.702547,41.584194 
	C31.108866,35.818424 44.750282,33.950443 52.045300,38.844654 
	C49.152920,38.844654 46.260540,38.844654 42.916687,38.834839 
z"/>
<path fill="#9AE2F1" opacity="1.000000" stroke="none" 
	d="
M64.265236,63.151608 
	C68.399055,63.574062 70.253113,65.890022 68.808083,69.244385 
	C68.188026,70.683723 65.271172,71.609207 63.309582,71.785400 
	C62.390621,71.867950 60.205055,69.319122 60.441460,68.489334 
	C60.992165,66.556328 62.663128,64.942490 64.265236,63.151608 
z"/>
<path fill="#343C48" opacity="1.000000" stroke="none" 
	d="
M28.626854,92.399254 
	C26.797945,93.231041 25.052902,94.211258 23.496943,93.970337 
	C22.783644,93.859886 21.855486,91.225693 22.120943,89.967239 
	C22.326097,88.994659 24.933661,87.498337 25.270365,87.763306 
	C26.688692,88.879440 27.655781,90.568993 28.626854,92.399254 
z"/>
<path fill="#323A46" opacity="1.000000" stroke="none" 
	d="
M105.494957,94.511917 
	C103.690704,93.514908 102.034233,92.499382 100.922081,91.062546 
	C100.674995,90.743332 102.203651,88.188599 103.169868,88.004852 
	C104.434822,87.764275 107.055145,88.719414 107.140144,89.402977 
	C107.335121,90.970970 106.346870,92.686096 105.494957,94.511917 
z"/>
<path fill="#333B47" opacity="1.000000" stroke="none" 
	d="
M67.695038,19.774063 
	C67.172409,21.822344 66.618706,23.668135 65.540649,25.126242 
	C65.320717,25.423708 62.632595,24.608179 61.990849,23.678509 
	C61.368805,22.777391 61.593719,20.024883 62.006741,19.897202 
	C63.715118,19.369072 65.635902,19.528021 67.695038,19.774063 
z"/>
</svg>